<svg width="134" height="18" viewBox="0 0 134 18" fill="none" xmlns="http://www.w3.org/2000/svg">
<path d="M0.243299 17V0.86804H2.98144V14.4268H10.3381V17H0.243299ZM20.7615 2.94639C19.156 2.94639 17.8034 3.51821 16.7037 4.66185C15.6041 5.8055 15.0543 7.19107 15.0543 8.81856C15.0543 10.446 15.6041 11.8316 16.7037 12.9753C17.8034 14.0969 19.156 14.6577 20.7615 14.6577C22.367 14.6577 23.7195 14.0969 24.8192 12.9753C25.9189 11.8316 26.4687 10.446 26.4687 8.81856C26.4687 7.19107 25.9189 5.8055 24.8192 4.66185C23.7195 3.51821 22.367 2.94639 20.7615 2.94639ZM20.7615 17.1649C18.3422 17.1649 16.3189 16.3732 14.6914 14.7897C13.0639 13.1842 12.2501 11.1938 12.2501 8.81856C12.2501 6.4433 13.0639 4.46392 14.6914 2.88041C16.3189 1.27491 18.3422 0.472164 20.7615 0.472164C23.1807 0.472164 25.2041 1.27491 26.8316 2.88041C28.4591 4.46392 29.2728 6.4433 29.2728 8.81856C29.2728 11.1938 28.4481 13.1732 26.7986 14.7567C25.1491 16.3622 23.1367 17.1649 20.7615 17.1649ZM43.8956 9.14845H46.6007V14.6577C45.0832 16.3512 42.9059 17.1979 40.0688 17.1979C37.6715 17.1979 35.6701 16.4062 34.0646 14.8227C32.4591 13.2392 31.6564 11.2598 31.6564 8.88454C31.6564 6.50928 32.4701 4.5189 34.0976 2.9134C35.7471 1.28591 37.7375 0.472164 40.0688 0.472164C42.4 0.472164 44.3354 1.14295 45.8749 2.48454L44.4234 4.56289C43.3017 3.61718 41.9272 3.14433 40.2997 3.14433C38.6502 3.14433 37.2646 3.68316 36.143 4.76082C35.0433 5.81649 34.4935 7.19107 34.4935 8.88454C34.4935 10.578 35.0213 11.9526 36.077 13.0082C37.1547 14.0419 38.4852 14.5588 40.0688 14.5588C41.6083 14.5588 42.8839 14.2289 43.8956 13.5691V9.14845ZM57.6677 2.94639C56.0622 2.94639 54.7096 3.51821 53.61 4.66185C52.5103 5.8055 51.9605 7.19107 51.9605 8.81856C51.9605 10.446 52.5103 11.8316 53.61 12.9753C54.7096 14.0969 56.0622 14.6577 57.6677 14.6577C59.2732 14.6577 60.6258 14.0969 61.7255 12.9753C62.8251 11.8316 63.3749 10.446 63.3749 8.81856C63.3749 7.19107 62.8251 5.8055 61.7255 4.66185C60.6258 3.51821 59.2732 2.94639 57.6677 2.94639ZM57.6677 17.1649C55.2485 17.1649 53.2251 16.3732 51.5976 14.7897C49.9701 13.1842 49.1564 11.1938 49.1564 8.81856C49.1564 6.4433 49.9701 4.46392 51.5976 2.88041C53.2251 1.27491 55.2485 0.472164 57.6677 0.472164C60.087 0.472164 62.1103 1.27491 63.7378 2.88041C65.3653 4.46392 66.1791 6.4433 66.1791 8.81856C66.1791 11.1938 65.3543 13.1732 63.7048 14.7567C62.0553 16.3622 60.043 17.1649 57.6677 17.1649ZM69.6183 17V0.86804H72.3564V14.4268H79.7131V17H69.6183ZM84.9571 13.3381L83.3406 17H80.4375L87.5633 0.86804H90.4664L97.5592 17H94.6561L93.0396 13.3381H84.9571ZM91.9509 10.7979L89.0148 4.16701L86.0787 10.7979H91.9509ZM111.913 0.86804H114.618V17H111.682L102.544 5.22268V17H99.8058V0.86804H102.544L111.913 12.9093V0.86804ZM124.661 0.86804C127.542 0.86804 129.763 1.57182 131.324 2.97938C132.886 4.36495 133.667 6.32234 133.667 8.85155C133.667 11.4247 132.897 13.4261 131.357 14.8557C129.818 16.2852 127.52 17 124.463 17H119.118V0.86804H124.661ZM124.562 3.37526H121.856V14.4268H124.859C126.838 14.4268 128.344 13.9649 129.378 13.0412C130.412 12.0955 130.929 10.721 130.929 8.91753C130.929 5.22268 128.806 3.37526 124.562 3.37526Z" fill="white"/>
</svg>
